<svg width="257" height="176" viewBox="0 0 257 176" fill="none" xmlns="http://www.w3.org/2000/svg">
<rect width="257" height="176" fill="url(#paint0_linear_12_154)"/>
<g filter="url(#filter0_d_12_154)">
<rect x="15" y="126" width="56.2926" height="19.9063" rx="9.95317" fill="white" shape-rendering="crispEdges"/>
<path d="M52.5 136.227V138.818H51.6506V134.455H52.4659V135.165H52.5199C52.6203 134.934 52.7775 134.748 52.9915 134.608C53.2074 134.468 53.4792 134.398 53.8068 134.398C54.1042 134.398 54.3646 134.46 54.5881 134.585C54.8116 134.708 54.9849 134.892 55.108 135.136C55.2311 135.381 55.2926 135.683 55.2926 136.043V138.818H54.4432V136.145C54.4432 135.829 54.3608 135.582 54.196 135.404C54.0313 135.224 53.8049 135.134 53.5171 135.134C53.3201 135.134 53.1449 135.176 52.9915 135.261C52.84 135.347 52.7197 135.472 52.6307 135.636C52.5436 135.799 52.5 135.996 52.5 136.227Z" fill="black"/>
<path d="M48.6683 138.906C48.2592 138.906 47.9022 138.813 47.5973 138.625C47.2924 138.438 47.0556 138.175 46.8871 137.838C46.7185 137.501 46.6342 137.107 46.6342 136.656C46.6342 136.204 46.7185 135.808 46.8871 135.469C47.0556 135.13 47.2924 134.867 47.5973 134.679C47.9022 134.492 48.2592 134.398 48.6683 134.398C49.0774 134.398 49.4344 134.492 49.7393 134.679C50.0443 134.867 50.281 135.13 50.4496 135.469C50.6181 135.808 50.7024 136.204 50.7024 136.656C50.7024 137.107 50.6181 137.501 50.4496 137.838C50.281 138.175 50.0443 138.438 49.7393 138.625C49.4344 138.813 49.0774 138.906 48.6683 138.906ZM48.6711 138.193C48.9363 138.193 49.156 138.123 49.3302 137.983C49.5045 137.843 49.6333 137.656 49.7166 137.423C49.8018 137.19 49.8444 136.934 49.8444 136.654C49.8444 136.375 49.8018 136.119 49.7166 135.886C49.6333 135.652 49.5045 135.463 49.3302 135.321C49.156 135.179 48.9363 135.108 48.6711 135.108C48.4041 135.108 48.1825 135.179 48.0064 135.321C47.8321 135.463 47.7024 135.652 47.6172 135.886C47.5338 136.119 47.4922 136.375 47.4922 136.654C47.4922 136.934 47.5338 137.19 47.6172 137.423C47.7024 137.656 47.8321 137.843 48.0064 137.983C48.1825 138.123 48.4041 138.193 48.6711 138.193Z" fill="black"/>
<path d="M45.9375 134.455V135.136H43.554V134.455H45.9375ZM44.1932 133.409H45.0426V137.537C45.0426 137.702 45.0672 137.826 45.1165 137.909C45.1657 137.991 45.2291 138.046 45.3068 138.077C45.3863 138.105 45.4725 138.119 45.5653 138.119C45.6335 138.119 45.6932 138.115 45.7443 138.105C45.7954 138.096 45.8352 138.088 45.8636 138.082L46.017 138.784C45.9678 138.803 45.8977 138.822 45.8068 138.841C45.7159 138.862 45.6023 138.873 45.4659 138.875C45.2424 138.879 45.0341 138.839 44.8409 138.756C44.6477 138.672 44.4915 138.544 44.3721 138.369C44.2528 138.195 44.1932 137.976 44.1932 137.713V133.409Z" fill="black"/>
<path d="M42.9609 134.455V135.136H40.5774V134.455H42.9609ZM41.2166 133.409H42.066V137.537C42.066 137.702 42.0907 137.826 42.1399 137.909C42.1891 137.991 42.2526 138.046 42.3302 138.077C42.4098 138.105 42.496 138.119 42.5888 138.119C42.6569 138.119 42.7166 138.115 42.7677 138.105C42.8189 138.096 42.8586 138.088 42.8871 138.082L43.0405 138.784C42.9912 138.803 42.9211 138.822 42.8302 138.841C42.7393 138.862 42.6257 138.873 42.4893 138.875C42.2658 138.879 42.0575 138.839 41.8643 138.756C41.6711 138.672 41.5149 138.544 41.3956 138.369C41.2763 138.195 41.2166 137.976 41.2166 137.713V133.409Z" fill="black"/>
<path d="M38.9304 137.009V134.455H39.7827V138.818H38.9474V138.063H38.902C38.8016 138.295 38.6406 138.49 38.419 138.645C38.1993 138.798 37.9257 138.875 37.598 138.875C37.3177 138.875 37.0696 138.813 36.8537 138.69C36.6397 138.565 36.4711 138.381 36.348 138.136C36.2268 137.892 36.1662 137.59 36.1662 137.23V134.455H37.0156V137.128C37.0156 137.425 37.098 137.662 37.2628 137.838C37.4276 138.014 37.6416 138.102 37.9048 138.102C38.0639 138.102 38.2221 138.063 38.3793 137.983C38.5384 137.903 38.67 137.783 38.7742 137.622C38.8802 137.461 38.9323 137.257 38.9304 137.009Z" fill="black"/>
<path d="M31 138.818V133H33.1307C33.5436 133 33.8854 133.068 34.1563 133.205C34.4271 133.339 34.6297 133.522 34.7642 133.753C34.8987 133.982 34.9659 134.241 34.9659 134.528C34.9659 134.771 34.9214 134.975 34.8324 135.142C34.7434 135.307 34.6241 135.439 34.4744 135.54C34.3267 135.638 34.1638 135.71 33.9858 135.756V135.812C34.179 135.822 34.3674 135.884 34.5511 136C34.7367 136.114 34.8902 136.276 35.0114 136.486C35.1326 136.696 35.1932 136.952 35.1932 137.253C35.1932 137.55 35.1231 137.817 34.983 138.054C34.8447 138.289 34.6307 138.475 34.3409 138.614C34.0511 138.75 33.6809 138.818 33.2301 138.818H31ZM31.8778 138.065H33.1449C33.5653 138.065 33.8665 137.984 34.0483 137.821C34.2301 137.658 34.321 137.455 34.321 137.21C34.321 137.027 34.2746 136.858 34.1818 136.705C34.089 136.551 33.9564 136.429 33.7841 136.338C33.6136 136.247 33.411 136.202 33.1761 136.202H31.8778V138.065ZM31.8778 135.517H33.054C33.2509 135.517 33.428 135.479 33.5852 135.403C33.7443 135.328 33.8703 135.222 33.9631 135.085C34.0578 134.947 34.1051 134.784 34.1051 134.597C34.1051 134.356 34.0208 134.154 33.8523 133.991C33.6837 133.829 33.4252 133.747 33.0767 133.747H31.8778V135.517Z" fill="black"/>
</g>
<rect x="17" y="100" width="58" height="21.4546" rx="10.7273" fill="white"/>
<path d="M55.261 108.455V109.136H52.8775V108.455H55.261ZM53.5167 107.409H54.3661V111.537C54.3661 111.702 54.3908 111.826 54.44 111.909C54.4892 111.991 54.5527 112.046 54.6303 112.077C54.7099 112.105 54.7961 112.119 54.8889 112.119C54.957 112.119 55.0167 112.115 55.0678 112.105C55.119 112.096 55.1588 112.088 55.1872 112.082L55.3406 112.784C55.2913 112.803 55.2213 112.822 55.1303 112.841C55.0394 112.862 54.9258 112.873 54.7894 112.875C54.5659 112.879 54.3576 112.839 54.1644 112.756C53.9713 112.672 53.815 112.544 53.6957 112.369C53.5764 112.195 53.5167 111.976 53.5167 111.713V107.409Z" fill="black"/>
<path d="M51.2305 111.009V108.455H52.0828V112.818H51.2476V112.063H51.2021C51.1017 112.295 50.9407 112.49 50.7191 112.645C50.4995 112.798 50.2258 112.875 49.8981 112.875C49.6178 112.875 49.3697 112.813 49.1538 112.69C48.9398 112.565 48.7712 112.381 48.6481 112.136C48.5269 111.892 48.4663 111.59 48.4663 111.23V108.455H49.3157V111.128C49.3157 111.425 49.3981 111.662 49.5629 111.838C49.7277 112.014 49.9417 112.102 50.2049 112.102C50.364 112.102 50.5222 112.063 50.6794 111.983C50.8385 111.903 50.9701 111.783 51.0743 111.622C51.1803 111.461 51.2324 111.257 51.2305 111.009Z" fill="black"/>
<path d="M43.5288 114.455V108.455H44.3584V109.162H44.4294C44.4786 109.071 44.5496 108.966 44.6424 108.847C44.7352 108.727 44.864 108.623 45.0288 108.534C45.1936 108.443 45.4114 108.398 45.6822 108.398C46.0345 108.398 46.3489 108.487 46.6254 108.665C46.9019 108.843 47.1188 109.1 47.276 109.435C47.4351 109.77 47.5146 110.173 47.5146 110.645C47.5146 111.117 47.436 111.521 47.2788 111.858C47.1216 112.193 46.9057 112.452 46.6311 112.634C46.3565 112.814 46.043 112.904 45.6907 112.904C45.4256 112.904 45.2087 112.859 45.0402 112.77C44.8735 112.681 44.7428 112.577 44.6481 112.457C44.5534 112.338 44.4805 112.232 44.4294 112.139H44.3782V114.455H43.5288ZM44.3612 110.636C44.3612 110.943 44.4057 111.212 44.4947 111.443C44.5837 111.674 44.7125 111.855 44.8811 111.986C45.0496 112.115 45.2561 112.179 45.5004 112.179C45.7542 112.179 45.9663 112.112 46.1368 111.977C46.3072 111.841 46.436 111.656 46.5231 111.423C46.6121 111.19 46.6566 110.928 46.6566 110.636C46.6566 110.349 46.6131 110.09 46.526 109.861C46.4407 109.632 46.312 109.451 46.1396 109.318C45.9691 109.186 45.7561 109.119 45.5004 109.119C45.2542 109.119 45.0459 109.183 44.8754 109.31C44.7068 109.437 44.579 109.614 44.4919 109.841C44.4048 110.068 44.3612 110.333 44.3612 110.636Z" fill="black"/>
<path d="M39.597 110.227V112.818H38.7476V108.455H39.5629V109.165H39.6169C39.7173 108.934 39.8745 108.748 40.0885 108.608C40.3044 108.468 40.5762 108.398 40.9038 108.398C41.2012 108.398 41.4616 108.46 41.6851 108.585C41.9085 108.708 42.0818 108.892 42.2049 109.136C42.3281 109.381 42.3896 109.683 42.3896 110.043V112.818H41.5402V110.145C41.5402 109.829 41.4578 109.582 41.293 109.404C41.1282 109.224 40.9019 109.134 40.614 109.134C40.4171 109.134 40.2419 109.176 40.0885 109.261C39.937 109.347 39.8167 109.472 39.7277 109.636C39.6406 109.799 39.597 109.996 39.597 110.227Z" fill="black"/>
<path d="M37.5373 107V112.818H36.6595V107H37.5373Z" fill="black"/>
<rect x="161" y="100" width="75.1563" height="20.1393" rx="10.0696" fill="white"/>
<path d="M217.821 113.051V108.688H218.642V109.381H218.688C218.767 109.146 218.907 108.961 219.108 108.827C219.311 108.69 219.54 108.622 219.795 108.622C219.849 108.622 219.911 108.624 219.983 108.628C220.057 108.632 220.115 108.636 220.156 108.642V109.455C220.122 109.445 220.062 109.435 219.974 109.423C219.887 109.41 219.8 109.403 219.713 109.403C219.512 109.403 219.333 109.446 219.176 109.531C219.021 109.615 218.898 109.731 218.807 109.881C218.716 110.028 218.67 110.197 218.67 110.386V113.051H217.821Z" fill="black"/>
<path d="M214.839 113.139C214.43 113.139 214.073 113.046 213.768 112.858C213.463 112.671 213.226 112.408 213.058 112.071C212.889 111.734 212.805 111.34 212.805 110.889C212.805 110.437 212.889 110.041 213.058 109.702C213.226 109.363 213.463 109.099 213.768 108.912C214.073 108.724 214.43 108.631 214.839 108.631C215.248 108.631 215.605 108.724 215.91 108.912C216.215 109.099 216.451 109.363 216.62 109.702C216.789 110.041 216.873 110.437 216.873 110.889C216.873 111.34 216.789 111.734 216.62 112.071C216.451 112.408 216.215 112.671 215.91 112.858C215.605 113.046 215.248 113.139 214.839 113.139ZM214.842 112.426C215.107 112.426 215.326 112.356 215.501 112.216C215.675 112.076 215.804 111.889 215.887 111.656C215.972 111.423 216.015 111.167 216.015 110.886C216.015 110.608 215.972 110.352 215.887 110.119C215.804 109.885 215.675 109.696 215.501 109.554C215.326 109.412 215.107 109.341 214.842 109.341C214.575 109.341 214.353 109.412 214.177 109.554C214.003 109.696 213.873 109.885 213.788 110.119C213.704 110.352 213.663 110.608 213.663 110.886C213.663 111.167 213.704 111.423 213.788 111.656C213.873 111.889 214.003 112.076 214.177 112.216C214.353 112.356 214.575 112.426 214.842 112.426Z" fill="black"/>
<path d="M212.108 108.688V109.369H209.724V108.688H212.108ZM210.364 107.642H211.213V111.77C211.213 111.935 211.238 112.059 211.287 112.142C211.336 112.224 211.4 112.279 211.477 112.31C211.557 112.338 211.643 112.352 211.736 112.352C211.804 112.352 211.864 112.348 211.915 112.338C211.966 112.329 212.006 112.321 212.034 112.315L212.188 113.017C212.138 113.036 212.068 113.055 211.977 113.074C211.886 113.095 211.773 113.106 211.636 113.108C211.413 113.112 211.205 113.072 211.011 112.989C210.818 112.905 210.662 112.777 210.543 112.602C210.423 112.428 210.364 112.209 210.364 111.946V107.642Z" fill="black"/>
<path d="M208.079 113.051V108.688H208.928V113.051H208.079ZM208.508 108.014C208.36 108.014 208.233 107.965 208.127 107.866C208.023 107.766 207.971 107.647 207.971 107.509C207.971 107.368 208.023 107.249 208.127 107.151C208.233 107.05 208.36 107 208.508 107C208.655 107 208.781 107.05 208.886 107.151C208.992 107.249 209.045 107.368 209.045 107.509C209.045 107.647 208.992 107.766 208.886 107.866C208.781 107.965 208.655 108.014 208.508 108.014Z" fill="black"/>
<path d="M204.705 113.136C204.352 113.136 204.038 113.046 203.761 112.866C203.487 112.685 203.271 112.426 203.114 112.091C202.958 111.754 202.881 111.349 202.881 110.878C202.881 110.406 202.959 110.003 203.117 109.668C203.276 109.332 203.493 109.076 203.77 108.898C204.046 108.72 204.36 108.631 204.71 108.631C204.981 108.631 205.199 108.676 205.364 108.767C205.53 108.856 205.659 108.96 205.75 109.08C205.843 109.199 205.915 109.304 205.966 109.395H206.017V107.233H206.867V113.051H206.037V112.372H205.966C205.915 112.465 205.841 112.571 205.744 112.69C205.65 112.81 205.519 112.914 205.352 113.003C205.186 113.092 204.97 113.136 204.705 113.136ZM204.892 112.412C205.136 112.412 205.343 112.347 205.511 112.219C205.682 112.088 205.811 111.907 205.898 111.676C205.987 111.445 206.031 111.176 206.031 110.869C206.031 110.566 205.988 110.301 205.901 110.074C205.814 109.847 205.686 109.669 205.517 109.543C205.349 109.416 205.14 109.352 204.892 109.352C204.636 109.352 204.423 109.419 204.253 109.551C204.082 109.684 203.954 109.865 203.867 110.094C203.781 110.323 203.739 110.581 203.739 110.869C203.739 111.161 203.782 111.423 203.869 111.656C203.956 111.889 204.085 112.074 204.256 112.21C204.428 112.345 204.64 112.412 204.892 112.412Z" fill="black"/>
<path d="M200.256 113.139C199.826 113.139 199.456 113.047 199.146 112.864C198.837 112.678 198.598 112.418 198.43 112.082C198.263 111.745 198.18 111.35 198.18 110.898C198.18 110.451 198.263 110.057 198.43 109.716C198.598 109.375 198.833 109.109 199.134 108.918C199.437 108.726 199.791 108.631 200.197 108.631C200.443 108.631 200.682 108.671 200.913 108.753C201.144 108.834 201.351 108.962 201.535 109.136C201.719 109.311 201.863 109.537 201.969 109.815C202.076 110.092 202.129 110.428 202.129 110.824V111.125H198.66V110.489H201.296C201.296 110.265 201.251 110.067 201.16 109.895C201.069 109.721 200.941 109.583 200.776 109.483C200.613 109.383 200.422 109.332 200.202 109.332C199.964 109.332 199.755 109.391 199.577 109.509C199.401 109.624 199.265 109.776 199.168 109.963C199.074 110.149 199.026 110.35 199.026 110.568V111.065C199.026 111.357 199.077 111.605 199.18 111.81C199.284 112.014 199.429 112.171 199.614 112.278C199.8 112.385 200.017 112.438 200.265 112.438C200.426 112.438 200.573 112.415 200.705 112.369C200.838 112.322 200.952 112.252 201.049 112.159C201.146 112.066 201.219 111.952 201.271 111.815L202.075 111.96C202.01 112.197 201.895 112.404 201.728 112.582C201.563 112.759 201.356 112.896 201.106 112.994C200.858 113.091 200.575 113.139 200.256 113.139Z" fill="black"/>
<path d="M193.444 113.139C193.014 113.139 192.644 113.047 192.333 112.864C192.024 112.678 191.786 112.418 191.617 112.082C191.451 111.745 191.367 111.35 191.367 110.898C191.367 110.451 191.451 110.057 191.617 109.716C191.786 109.375 192.021 109.109 192.322 108.918C192.625 108.726 192.979 108.631 193.384 108.631C193.63 108.631 193.869 108.671 194.1 108.753C194.331 108.834 194.539 108.962 194.722 109.136C194.906 109.311 195.051 109.537 195.157 109.815C195.263 110.092 195.316 110.428 195.316 110.824V111.125H191.847V110.489H194.484C194.484 110.265 194.438 110.067 194.347 109.895C194.256 109.721 194.129 109.583 193.964 109.483C193.801 109.383 193.61 109.332 193.39 109.332C193.151 109.332 192.943 109.391 192.765 109.509C192.589 109.624 192.452 109.776 192.356 109.963C192.261 110.149 192.214 110.35 192.214 110.568V111.065C192.214 111.357 192.265 111.605 192.367 111.81C192.471 112.014 192.616 112.171 192.802 112.278C192.987 112.385 193.204 112.438 193.452 112.438C193.613 112.438 193.76 112.415 193.893 112.369C194.025 112.322 194.14 112.252 194.237 112.159C194.333 112.066 194.407 111.952 194.458 111.815L195.262 111.96C195.198 112.197 195.082 112.404 194.915 112.582C194.751 112.759 194.543 112.896 194.293 112.994C194.045 113.091 193.762 113.139 193.444 113.139Z" fill="black"/>
<path d="M188.189 113.136C187.837 113.136 187.522 113.046 187.246 112.866C186.971 112.685 186.755 112.426 186.598 112.091C186.443 111.754 186.365 111.349 186.365 110.878C186.365 110.406 186.444 110.003 186.601 109.668C186.76 109.332 186.978 109.076 187.254 108.898C187.531 108.72 187.844 108.631 188.195 108.631C188.465 108.631 188.683 108.676 188.848 108.767C189.015 108.856 189.144 108.96 189.234 109.08C189.327 109.199 189.399 109.304 189.45 109.395H189.501V107.233H190.351V113.051H189.521V112.372H189.45C189.399 112.465 189.325 112.571 189.229 112.69C189.134 112.81 189.003 112.914 188.837 113.003C188.67 113.092 188.454 113.136 188.189 113.136ZM188.376 112.412C188.621 112.412 188.827 112.347 188.996 112.219C189.166 112.088 189.295 111.907 189.382 111.676C189.471 111.445 189.516 111.176 189.516 110.869C189.516 110.566 189.472 110.301 189.385 110.074C189.298 109.847 189.17 109.669 189.001 109.543C188.833 109.416 188.625 109.352 188.376 109.352C188.121 109.352 187.908 109.419 187.737 109.551C187.567 109.684 187.438 109.865 187.351 110.094C187.266 110.323 187.223 110.581 187.223 110.869C187.223 111.161 187.267 111.423 187.354 111.656C187.441 111.889 187.57 112.074 187.74 112.21C187.912 112.345 188.125 112.412 188.376 112.412Z" fill="black"/>
<path d="M183.573 113.139C183.164 113.139 182.807 113.046 182.502 112.858C182.197 112.671 181.96 112.408 181.792 112.071C181.623 111.734 181.539 111.34 181.539 110.889C181.539 110.437 181.623 110.041 181.792 109.702C181.96 109.363 182.197 109.099 182.502 108.912C182.807 108.724 183.164 108.631 183.573 108.631C183.982 108.631 184.339 108.724 184.644 108.912C184.949 109.099 185.186 109.363 185.354 109.702C185.523 110.041 185.607 110.437 185.607 110.889C185.607 111.34 185.523 111.734 185.354 112.071C185.186 112.408 184.949 112.671 184.644 112.858C184.339 113.046 183.982 113.139 183.573 113.139ZM183.576 112.426C183.841 112.426 184.061 112.356 184.235 112.216C184.409 112.076 184.538 111.889 184.621 111.656C184.707 111.423 184.749 111.167 184.749 110.886C184.749 110.608 184.707 110.352 184.621 110.119C184.538 109.885 184.409 109.696 184.235 109.554C184.061 109.412 183.841 109.341 183.576 109.341C183.309 109.341 183.087 109.412 182.911 109.554C182.737 109.696 182.607 109.885 182.522 110.119C182.439 110.352 182.397 110.608 182.397 110.886C182.397 111.167 182.439 111.423 182.522 111.656C182.607 111.889 182.737 112.076 182.911 112.216C183.087 112.356 183.309 112.426 183.576 112.426Z" fill="black"/>
<path d="M179.034 113.139C178.612 113.139 178.248 113.044 177.943 112.852C177.64 112.659 177.407 112.393 177.244 112.054C177.081 111.715 177 111.327 177 110.889C177 110.446 177.083 110.055 177.25 109.716C177.417 109.375 177.652 109.109 177.955 108.918C178.258 108.726 178.615 108.631 179.026 108.631C179.357 108.631 179.652 108.692 179.912 108.815C180.171 108.937 180.381 109.107 180.54 109.327C180.701 109.546 180.796 109.803 180.827 110.097H180C179.955 109.892 179.85 109.716 179.688 109.568C179.527 109.421 179.311 109.347 179.04 109.347C178.803 109.347 178.596 109.409 178.418 109.534C178.241 109.657 178.104 109.833 178.006 110.063C177.907 110.29 177.858 110.559 177.858 110.869C177.858 111.188 177.906 111.462 178.003 111.693C178.099 111.924 178.236 112.103 178.412 112.23C178.59 112.357 178.799 112.421 179.04 112.421C179.201 112.421 179.347 112.391 179.477 112.332C179.61 112.272 179.721 112.186 179.81 112.074C179.901 111.962 179.964 111.828 180 111.671H180.827C180.796 111.953 180.705 112.205 180.551 112.426C180.398 112.648 180.192 112.822 179.935 112.949C179.679 113.076 179.379 113.139 179.034 113.139Z" fill="black"/>
<g filter="url(#filter1_d_12_154)">
<rect x="161" y="126" width="82.1385" height="19.9149" rx="9.95744" fill="white" shape-rendering="crispEdges"/>
<path d="M227.053 135.52L226.283 135.656C226.251 135.558 226.2 135.464 226.13 135.375C226.062 135.286 225.969 135.213 225.852 135.156C225.734 135.1 225.587 135.071 225.411 135.071C225.171 135.071 224.97 135.125 224.809 135.233C224.648 135.339 224.567 135.476 224.567 135.645C224.567 135.791 224.621 135.908 224.729 135.997C224.837 136.086 225.012 136.159 225.252 136.216L225.945 136.375C226.347 136.468 226.646 136.611 226.843 136.804C227.04 136.997 227.139 137.248 227.139 137.557C227.139 137.818 227.063 138.051 226.911 138.256C226.762 138.458 226.552 138.618 226.283 138.733C226.016 138.849 225.707 138.906 225.354 138.906C224.866 138.906 224.467 138.802 224.158 138.594C223.85 138.384 223.66 138.085 223.59 137.699L224.411 137.574C224.462 137.788 224.567 137.95 224.727 138.06C224.886 138.168 225.093 138.222 225.349 138.222C225.627 138.222 225.85 138.164 226.016 138.048C226.183 137.931 226.266 137.788 226.266 137.619C226.266 137.483 226.215 137.368 226.113 137.276C226.013 137.183 225.858 137.113 225.65 137.065L224.911 136.904C224.504 136.811 224.203 136.663 224.008 136.46C223.815 136.258 223.718 136.001 223.718 135.69C223.718 135.433 223.79 135.207 223.934 135.014C224.078 134.821 224.277 134.671 224.531 134.563C224.784 134.453 225.075 134.398 225.403 134.398C225.874 134.398 226.246 134.5 226.516 134.705C226.787 134.907 226.966 135.179 227.053 135.52Z" fill="black"/>
<path d="M218.844 138.818V133H219.693V135.162H219.744C219.794 135.071 219.865 134.966 219.957 134.847C220.05 134.727 220.179 134.623 220.344 134.534C220.509 134.443 220.726 134.398 220.997 134.398C221.349 134.398 221.664 134.487 221.94 134.665C222.217 134.843 222.434 135.099 222.591 135.435C222.75 135.77 222.83 136.173 222.83 136.645C222.83 137.116 222.751 137.521 222.594 137.858C222.437 138.193 222.221 138.452 221.946 138.634C221.671 138.813 221.358 138.903 221.006 138.903C220.741 138.903 220.524 138.859 220.355 138.77C220.188 138.681 220.058 138.577 219.963 138.457C219.868 138.338 219.795 138.232 219.744 138.139H219.673V138.818H218.844ZM219.676 136.636C219.676 136.943 219.721 137.212 219.81 137.443C219.899 137.674 220.027 137.855 220.196 137.986C220.365 138.115 220.571 138.179 220.815 138.179C221.069 138.179 221.281 138.112 221.452 137.977C221.622 137.841 221.751 137.656 221.838 137.423C221.927 137.19 221.972 136.928 221.972 136.636C221.972 136.348 221.928 136.09 221.841 135.861C221.756 135.632 221.627 135.451 221.455 135.318C221.284 135.186 221.071 135.119 220.815 135.119C220.569 135.119 220.361 135.183 220.19 135.31C220.022 135.437 219.894 135.614 219.807 135.841C219.72 136.068 219.676 136.333 219.676 136.636Z" fill="black"/>
<path d="M211.705 138.818V134.455H212.521V135.165H212.575C212.666 134.924 212.814 134.737 213.021 134.602C213.227 134.466 213.474 134.398 213.762 134.398C214.054 134.398 214.298 134.466 214.495 134.602C214.694 134.739 214.841 134.926 214.935 135.165H214.981C215.085 134.932 215.251 134.746 215.478 134.608C215.705 134.468 215.976 134.398 216.291 134.398C216.686 134.398 217.009 134.522 217.259 134.77C217.511 135.018 217.637 135.392 217.637 135.892V138.818H216.788V135.972C216.788 135.676 216.707 135.462 216.546 135.33C216.385 135.197 216.193 135.131 215.97 135.131C215.693 135.131 215.478 135.216 215.325 135.386C215.171 135.555 215.095 135.772 215.095 136.037V138.818H214.248V135.918C214.248 135.681 214.174 135.491 214.026 135.347C213.879 135.203 213.686 135.131 213.45 135.131C213.289 135.131 213.14 135.173 213.004 135.259C212.869 135.342 212.76 135.458 212.677 135.608C212.595 135.758 212.555 135.931 212.555 136.128V138.818H211.705Z" fill="black"/>
<path d="M209.712 137.009V134.455H210.564V138.818H209.729V138.063H209.683C209.583 138.295 209.422 138.49 209.2 138.645C208.981 138.798 208.707 138.875 208.379 138.875C208.099 138.875 207.851 138.813 207.635 138.69C207.421 138.565 207.252 138.381 207.129 138.136C207.008 137.892 206.948 137.59 206.948 137.23V134.455H207.797V137.128C207.797 137.425 207.879 137.662 208.044 137.838C208.209 138.014 208.423 138.102 208.686 138.102C208.845 138.102 209.003 138.063 209.161 137.983C209.32 137.903 209.451 137.783 209.555 137.622C209.662 137.461 209.714 137.257 209.712 137.009Z" fill="black"/>
<path d="M203.877 138.818V134.455H204.698V135.148H204.744C204.823 134.913 204.963 134.728 205.164 134.594C205.367 134.457 205.596 134.389 205.852 134.389C205.905 134.389 205.967 134.391 206.039 134.395C206.113 134.399 206.171 134.403 206.212 134.409V135.222C206.178 135.212 206.118 135.202 206.031 135.19C205.943 135.177 205.856 135.171 205.769 135.171C205.568 135.171 205.39 135.213 205.232 135.298C205.077 135.382 204.954 135.498 204.863 135.648C204.772 135.796 204.727 135.964 204.727 136.153V138.818H203.877Z" fill="black"/>
<path d="M201.176 138.906C200.754 138.906 200.39 138.811 200.085 138.619C199.782 138.426 199.549 138.16 199.386 137.821C199.224 137.482 199.142 137.094 199.142 136.656C199.142 136.213 199.225 135.822 199.392 135.483C199.559 135.142 199.794 134.876 200.097 134.685C200.4 134.493 200.757 134.398 201.168 134.398C201.499 134.398 201.795 134.459 202.054 134.582C202.313 134.704 202.523 134.874 202.682 135.094C202.843 135.314 202.938 135.57 202.969 135.864H202.142C202.097 135.659 201.992 135.483 201.83 135.335C201.669 135.188 201.453 135.114 201.182 135.114C200.945 135.114 200.738 135.176 200.56 135.301C200.384 135.424 200.246 135.6 200.148 135.83C200.049 136.057 200 136.326 200 136.636C200 136.955 200.048 137.229 200.145 137.46C200.242 137.691 200.378 137.87 200.554 137.997C200.732 138.124 200.941 138.188 201.182 138.188C201.343 138.188 201.489 138.158 201.619 138.1C201.752 138.039 201.863 137.953 201.952 137.841C202.043 137.729 202.106 137.595 202.142 137.438H202.969C202.938 137.72 202.847 137.972 202.693 138.193C202.54 138.415 202.334 138.589 202.077 138.716C201.821 138.843 201.521 138.906 201.176 138.906Z" fill="black"/>
<path d="M195.964 138.903C195.612 138.903 195.297 138.813 195.021 138.634C194.746 138.452 194.53 138.193 194.373 137.858C194.218 137.521 194.14 137.116 194.14 136.645C194.14 136.173 194.219 135.77 194.376 135.435C194.535 135.099 194.753 134.843 195.029 134.665C195.306 134.487 195.619 134.398 195.97 134.398C196.24 134.398 196.458 134.443 196.623 134.534C196.79 134.623 196.918 134.727 197.009 134.847C197.102 134.966 197.174 135.071 197.225 135.162H197.276V133H198.126V138.818H197.296V138.139H197.225C197.174 138.232 197.1 138.338 197.004 138.457C196.909 138.577 196.778 138.681 196.612 138.77C196.445 138.859 196.229 138.903 195.964 138.903ZM196.151 138.179C196.396 138.179 196.602 138.115 196.771 137.986C196.941 137.855 197.07 137.674 197.157 137.443C197.246 137.212 197.291 136.943 197.291 136.636C197.291 136.333 197.247 136.068 197.16 135.841C197.073 135.614 196.945 135.437 196.776 135.31C196.608 135.183 196.399 135.119 196.151 135.119C195.896 135.119 195.683 135.186 195.512 135.318C195.342 135.451 195.213 135.632 195.126 135.861C195.041 136.09 194.998 136.348 194.998 136.636C194.998 136.928 195.042 137.19 195.129 137.423C195.216 137.656 195.345 137.841 195.515 137.977C195.687 138.112 195.899 138.179 196.151 138.179Z" fill="black"/>
<path d="M191.045 138.915C190.769 138.915 190.519 138.864 190.295 138.761C190.072 138.657 189.895 138.507 189.764 138.31C189.635 138.113 189.571 137.871 189.571 137.585C189.571 137.339 189.618 137.136 189.713 136.977C189.808 136.818 189.936 136.692 190.097 136.6C190.258 136.507 190.438 136.437 190.636 136.389C190.835 136.342 191.038 136.306 191.244 136.281C191.506 136.251 191.718 136.226 191.881 136.207C192.044 136.187 192.162 136.154 192.236 136.108C192.31 136.063 192.347 135.989 192.347 135.886V135.867C192.347 135.618 192.277 135.426 192.136 135.29C191.998 135.154 191.792 135.085 191.517 135.085C191.231 135.085 191.006 135.149 190.841 135.276C190.678 135.401 190.565 135.54 190.503 135.693L189.705 135.511C189.799 135.246 189.938 135.032 190.119 134.869C190.303 134.705 190.514 134.585 190.753 134.511C190.992 134.436 191.242 134.398 191.506 134.398C191.68 134.398 191.865 134.419 192.06 134.46C192.257 134.5 192.44 134.574 192.611 134.682C192.783 134.79 192.924 134.944 193.034 135.145C193.144 135.344 193.199 135.602 193.199 135.921V138.818H192.369V138.222H192.335C192.28 138.332 192.198 138.439 192.088 138.546C191.978 138.652 191.837 138.74 191.665 138.81C191.492 138.88 191.286 138.915 191.045 138.915ZM191.23 138.233C191.465 138.233 191.666 138.187 191.832 138.094C192.001 138.001 192.129 137.88 192.216 137.73C192.305 137.579 192.349 137.417 192.349 137.244V136.682C192.319 136.712 192.26 136.741 192.173 136.767C192.088 136.792 191.991 136.814 191.881 136.832C191.771 136.85 191.664 136.866 191.56 136.881C191.456 136.894 191.368 136.905 191.298 136.915C191.134 136.936 190.983 136.971 190.847 137.02C190.712 137.069 190.604 137.14 190.523 137.233C190.443 137.324 190.403 137.445 190.403 137.597C190.403 137.807 190.481 137.966 190.636 138.074C190.792 138.18 190.99 138.233 191.23 138.233Z" fill="black"/>
<path d="M186.961 138.906C186.531 138.906 186.161 138.814 185.85 138.631C185.541 138.445 185.303 138.185 185.134 137.85C184.968 137.512 184.884 137.118 184.884 136.665C184.884 136.218 184.968 135.824 185.134 135.483C185.303 135.142 185.538 134.876 185.839 134.685C186.142 134.493 186.496 134.398 186.901 134.398C187.148 134.398 187.386 134.439 187.617 134.52C187.848 134.601 188.056 134.729 188.239 134.904C188.423 135.078 188.568 135.304 188.674 135.582C188.78 135.859 188.833 136.195 188.833 136.591V136.892H185.364V136.256H188.001C188.001 136.032 187.955 135.834 187.864 135.662C187.773 135.488 187.646 135.35 187.481 135.25C187.318 135.15 187.127 135.1 186.907 135.1C186.668 135.1 186.46 135.158 186.282 135.276C186.106 135.391 185.97 135.543 185.873 135.73C185.778 135.916 185.731 136.118 185.731 136.335V136.832C185.731 137.124 185.782 137.372 185.884 137.577C185.988 137.781 186.133 137.938 186.319 138.046C186.505 138.152 186.721 138.205 186.97 138.205C187.13 138.205 187.277 138.182 187.41 138.136C187.542 138.089 187.657 138.019 187.754 137.926C187.85 137.833 187.924 137.719 187.975 137.582L188.779 137.727C188.715 137.964 188.599 138.172 188.433 138.35C188.268 138.526 188.06 138.663 187.81 138.761C187.562 138.858 187.279 138.906 186.961 138.906Z" fill="black"/>
<path d="M182.166 138.818V134.455H182.987V135.148H183.033C183.112 134.913 183.252 134.728 183.453 134.594C183.656 134.457 183.885 134.389 184.141 134.389C184.194 134.389 184.256 134.391 184.328 134.395C184.402 134.399 184.46 134.403 184.501 134.409V135.222C184.467 135.212 184.407 135.202 184.32 135.19C184.233 135.177 184.145 135.171 184.058 135.171C183.858 135.171 183.679 135.213 183.521 135.298C183.366 135.382 183.243 135.498 183.152 135.648C183.061 135.796 183.016 135.964 183.016 136.153V138.818H182.166Z" fill="black"/>
<path d="M177 138.818V133H179.131C179.544 133 179.885 133.068 180.156 133.205C180.427 133.339 180.63 133.522 180.764 133.753C180.899 133.982 180.966 134.241 180.966 134.528C180.966 134.771 180.921 134.975 180.832 135.142C180.743 135.307 180.624 135.439 180.474 135.54C180.327 135.638 180.164 135.71 179.986 135.756V135.812C180.179 135.822 180.367 135.884 180.551 136C180.737 136.114 180.89 136.276 181.011 136.486C181.133 136.696 181.193 136.952 181.193 137.253C181.193 137.55 181.123 137.817 180.983 138.054C180.845 138.289 180.631 138.475 180.341 138.614C180.051 138.75 179.681 138.818 179.23 138.818H177ZM177.878 138.065H179.145C179.565 138.065 179.866 137.984 180.048 137.821C180.23 137.658 180.321 137.455 180.321 137.21C180.321 137.027 180.275 136.858 180.182 136.705C180.089 136.551 179.956 136.429 179.784 136.338C179.614 136.247 179.411 136.202 179.176 136.202H177.878V138.065ZM177.878 135.517H179.054C179.251 135.517 179.428 135.479 179.585 135.403C179.744 135.328 179.87 135.222 179.963 135.085C180.058 134.947 180.105 134.784 180.105 134.597C180.105 134.356 180.021 134.154 179.852 133.991C179.684 133.829 179.425 133.747 179.077 133.747H177.878V135.517Z" fill="black"/>
</g>
<rect x="90" y="85.6841" width="69.7039" height="19.9858" rx="9.99292" transform="rotate(-3.7252 90 85.6841)" fill="white"/>
<path d="M141.276 90.8977L142.347 92.5304L143.207 90.772L144.134 90.7116L142.917 92.9773L144.428 95.0653L143.501 95.1257L142.415 93.5623L141.542 95.2532L140.613 95.3138L141.826 93.0483L140.346 90.9582L141.276 90.8977Z" fill="black"/>
<path d="M138.092 95.5662C137.684 95.5928 137.321 95.5224 137.005 95.3551C136.688 95.1878 136.435 94.9414 136.245 94.616C136.055 94.2905 135.945 93.9029 135.916 93.4531C135.886 93.0014 135.945 92.6009 136.091 92.2517C136.237 91.9024 136.456 91.6243 136.748 91.4174C137.04 91.2105 137.391 91.0938 137.799 91.0672C138.207 91.0406 138.569 91.111 138.886 91.2783C139.202 91.4455 139.456 91.6929 139.646 92.0202C139.836 92.3476 139.946 92.7371 139.975 93.1888C140.005 93.6386 139.946 94.0372 139.8 94.3845C139.654 94.7319 139.434 95.009 139.142 95.2159C138.85 95.4229 138.5 95.5396 138.092 95.5662ZM138.048 94.8544C138.313 94.8372 138.528 94.753 138.692 94.6018C138.857 94.4507 138.973 94.2561 139.041 94.0183C139.111 93.7803 139.137 93.5214 139.119 93.2417C139.101 92.9639 139.042 92.7115 138.942 92.4846C138.843 92.2556 138.702 92.0759 138.519 91.9455C138.336 91.8151 138.112 91.7585 137.848 91.7757C137.581 91.7931 137.365 91.8783 137.198 92.0315C137.034 92.1846 136.916 92.3811 136.847 92.621C136.779 92.8588 136.754 93.1167 136.772 93.3945C136.79 93.6742 136.848 93.9276 136.946 94.1547C137.047 94.3816 137.188 94.5593 137.371 94.6878C137.556 94.8163 137.782 94.8718 138.048 94.8544Z" fill="black"/>
<path d="M131.323 95.9187L130.945 90.1128L131.792 90.0576L131.933 92.215L131.984 92.2116C132.027 92.1177 132.091 92.0082 132.176 91.8831C132.261 91.758 132.382 91.6457 132.541 91.5462C132.7 91.4448 132.914 91.3853 133.184 91.3677C133.536 91.3448 133.855 91.4132 134.143 91.5729C134.43 91.7325 134.663 91.9745 134.842 92.2989C135.023 92.623 135.128 93.0204 135.159 93.491C135.189 93.9616 135.137 94.3702 135.002 94.7168C134.867 95.0616 134.669 95.3336 134.406 95.5329C134.144 95.7302 133.837 95.8404 133.485 95.8633C133.221 95.8805 133.002 95.8502 132.828 95.7723C132.656 95.6943 132.518 95.5988 132.416 95.4859C132.314 95.373 132.234 95.2719 132.177 95.1826L132.106 95.1872L132.15 95.8648L131.323 95.9187ZM132.011 93.6874C132.031 93.9936 132.093 94.259 132.197 94.4838C132.301 94.7086 132.441 94.8807 132.618 95.0002C132.795 95.1178 133.005 95.1686 133.248 95.1527C133.502 95.1362 133.709 95.0554 133.87 94.9101C134.032 94.763 134.148 94.5703 134.22 94.3322C134.294 94.094 134.321 93.8293 134.302 93.5383C134.283 93.251 134.223 92.9958 134.121 92.7728C134.021 92.5497 133.881 92.3775 133.7 92.2565C133.522 92.1352 133.305 92.0829 133.05 92.0995C132.804 92.1155 132.6 92.1924 132.438 92.3301C132.278 92.4677 132.162 92.6527 132.09 92.8851C132.018 93.1176 131.992 93.385 132.011 93.6874Z" fill="black"/>
<path d="M127.494 94.6846L127.421 93.6503L127.569 93.6407L129.184 91.685L130.199 91.6189L128.356 93.8456L128.223 93.8543L127.494 94.6846ZM126.811 96.2124L126.433 90.4065L127.28 90.3513L127.659 96.1572L126.811 96.2124ZM129.561 96.0333L127.867 94.0654L128.412 93.4349L130.601 95.9656L129.561 96.0333Z" fill="black"/>
<path d="M124.121 96.4757C123.7 96.5032 123.331 96.4314 123.014 96.2603C122.699 96.0872 122.449 95.8368 122.265 95.5091C122.08 95.1814 121.974 94.7992 121.945 94.3626C121.917 93.9204 121.974 93.5247 122.119 93.1756C122.263 92.8246 122.48 92.5438 122.77 92.3332C123.06 92.1226 123.41 92.004 123.82 91.9773C124.151 91.9557 124.449 91.998 124.716 92.104C124.983 92.2081 125.203 92.3646 125.376 92.5735C125.551 92.7822 125.663 93.0321 125.712 93.3231L124.887 93.3768C124.829 93.1756 124.713 93.0066 124.541 92.8698C124.371 92.7328 124.151 92.6732 123.881 92.6908C123.644 92.7061 123.441 92.782 123.272 92.9183C123.104 93.0526 122.979 93.2373 122.895 93.4723C122.812 93.7055 122.78 93.9771 122.8 94.2871C122.821 94.6046 122.887 94.8755 122.998 95.0998C123.11 95.3241 123.257 95.4938 123.441 95.609C123.627 95.724 123.84 95.7738 124.08 95.7581C124.241 95.7477 124.385 95.7089 124.511 95.6418C124.639 95.5727 124.744 95.4795 124.826 95.3622C124.909 95.2448 124.964 95.1065 124.99 94.9473L125.815 94.8936C125.803 95.1772 125.727 95.4345 125.589 95.6656C125.45 95.8967 125.256 96.0839 125.008 96.2273C124.761 96.3705 124.465 96.4533 124.121 96.4757Z" fill="black"/>
<path d="M119.478 96.7781C119.049 96.8061 118.674 96.7385 118.352 96.5753C118.032 96.4102 117.777 96.1658 117.587 95.8422C117.399 95.5167 117.29 95.128 117.26 94.6763C117.231 94.2303 117.289 93.8318 117.433 93.4808C117.579 93.1296 117.796 92.8488 118.084 92.6384C118.374 92.4278 118.721 92.3093 119.126 92.283C119.372 92.267 119.612 92.2921 119.848 92.3584C120.084 92.4247 120.299 92.5388 120.494 92.7007C120.689 92.8626 120.848 93.0791 120.972 93.35C121.096 93.619 121.17 93.9511 121.196 94.346L121.216 94.6465L117.754 94.8719L117.713 94.2369L120.344 94.0656C120.329 93.8426 120.271 93.6481 120.169 93.482C120.067 93.314 119.931 93.1853 119.76 93.0958C119.591 93.0062 119.396 92.9686 119.177 92.9829C118.939 92.9984 118.735 93.0705 118.565 93.1992C118.397 93.326 118.27 93.486 118.186 93.6794C118.104 93.8708 118.07 94.0751 118.084 94.2925L118.116 94.7886C118.135 95.0796 118.202 95.3239 118.318 95.5214C118.435 95.7187 118.59 95.8652 118.782 95.9609C118.974 96.0546 119.194 96.0935 119.441 96.0774C119.602 96.0669 119.747 96.0347 119.876 95.9807C120.006 95.9248 120.115 95.8475 120.206 95.7486C120.296 95.6497 120.362 95.5306 120.404 95.3912L121.216 95.4835C121.167 95.7239 121.065 95.9384 120.911 96.1269C120.758 96.3134 120.56 96.4638 120.317 96.5784C120.075 96.6909 119.796 96.7575 119.478 96.7781Z" fill="black"/>
<path d="M113.473 94.4845L113.641 97.0699L112.794 97.1251L112.416 91.3192L113.252 91.2648L113.393 93.425L113.446 93.4215C113.533 93.1805 113.677 92.9841 113.878 92.8325C114.079 92.6809 114.348 92.5941 114.687 92.572C114.985 92.5526 115.25 92.597 115.481 92.7054C115.714 92.8136 115.9 92.9856 116.038 93.2214C116.179 93.4552 116.261 93.7535 116.285 94.1164L116.465 96.8861L115.617 96.9413L115.444 94.2736C115.423 93.9542 115.324 93.712 115.149 93.5469C114.973 93.38 114.738 93.306 114.445 93.3251C114.245 93.3382 114.068 93.3924 113.915 93.4878C113.763 93.583 113.648 93.7158 113.568 93.8861C113.49 94.0545 113.458 94.2539 113.473 94.4845Z" fill="black"/>
<path d="M111.558 93.271L110.674 93.3286C110.628 93.1418 110.553 92.9797 110.451 92.842C110.35 92.7044 110.228 92.5899 110.087 92.4985C109.947 92.4071 109.792 92.3413 109.622 92.3011C109.454 92.2607 109.278 92.2466 109.093 92.2587C108.758 92.2804 108.464 92.384 108.21 92.5695C107.959 92.7548 107.767 93.015 107.635 93.35C107.505 93.6849 107.455 94.0867 107.486 94.5554C107.516 95.0279 107.618 95.4218 107.79 95.737C107.964 96.0521 108.189 96.2842 108.465 96.4333C108.74 96.5824 109.043 96.6461 109.374 96.6246C109.557 96.6127 109.73 96.5768 109.891 96.5169C110.054 96.4551 110.199 96.3706 110.327 96.2636C110.455 96.1566 110.56 96.0292 110.644 95.8814C110.729 95.7317 110.783 95.563 110.807 95.3754L111.692 95.3207C111.663 95.6091 111.589 95.8778 111.468 96.1267C111.349 96.3736 111.19 96.5908 110.99 96.7785C110.791 96.9641 110.56 97.113 110.296 97.2251C110.031 97.3372 109.74 97.4036 109.42 97.4244C108.918 97.4571 108.462 97.3672 108.053 97.1547C107.645 96.9403 107.312 96.6174 107.056 96.1862C106.803 95.7548 106.655 95.2301 106.615 94.6121C106.575 93.9922 106.654 93.4528 106.851 92.9939C107.049 92.5331 107.337 92.1708 107.714 91.9071C108.092 91.6415 108.531 91.4924 109.032 91.4598C109.34 91.4397 109.63 91.4654 109.902 91.5369C110.176 91.6064 110.426 91.7192 110.65 91.8754C110.875 92.0297 111.065 92.2242 111.221 92.4589C111.376 92.6917 111.489 92.9624 111.558 93.271Z" fill="black"/>
<rect x="40" y="60.9901" width="82.3064" height="21.5454" rx="10.7727" transform="rotate(-2.77875 40 60.9901)" fill="white"/>
<path d="M96.4481 72.7219C96.3214 72.728 96.2055 72.7232 96.1004 72.7074C95.9955 72.6936 95.9169 72.6765 95.8647 72.6563L96.0353 71.9512C96.1924 71.9853 96.3314 71.9965 96.4522 71.985C96.573 71.9734 96.6776 71.9229 96.7662 71.8332C96.8567 71.7435 96.9331 71.6004 96.9957 71.404L97.0866 71.1095L95.2776 66.7716L96.1856 66.7275L97.4536 70.0563L97.499 70.0541L98.4386 66.6182L99.3495 66.574L97.7931 71.6014C97.7209 71.8324 97.6243 72.0296 97.5032 72.1928C97.3823 72.358 97.2349 72.4846 97.0609 72.5727C96.887 72.6607 96.6827 72.7105 96.4481 72.7219Z" fill="black"/>
<path d="M92.6331 71.2687L92.4216 66.9102L93.2416 66.8704L93.2752 67.5628L93.3206 67.5606C93.3887 67.3222 93.5197 67.1309 93.7137 66.9869C93.9095 66.8409 94.1351 66.7616 94.3905 66.7493C94.4435 66.7467 94.506 66.7455 94.5781 66.7458C94.652 66.746 94.7099 66.748 94.7518 66.7516L94.7912 67.5632C94.7567 67.5554 94.6957 67.5479 94.6081 67.5408C94.5205 67.5318 94.4331 67.5294 94.3461 67.5336C94.1456 67.5433 93.9689 67.5945 93.816 67.6873C93.6649 67.7781 93.5476 67.9004 93.464 68.0542C93.3804 68.2062 93.3432 68.3767 93.3524 68.5659L93.4815 71.2276L92.6331 71.2687Z" fill="black"/>
<path d="M91.483 66.9558L91.5161 67.6368L89.1354 67.7523L89.1023 67.0713L91.483 66.9558ZM89.6901 65.9961L90.5385 65.9549L90.7386 70.0779C90.7466 70.2425 90.7772 70.3652 90.8305 70.4461C90.8836 70.525 90.9497 70.5777 91.0287 70.6042C91.1095 70.6288 91.1963 70.6388 91.289 70.6343C91.3571 70.631 91.4164 70.6234 91.4671 70.6114C91.5177 70.5995 91.557 70.59 91.5851 70.5829L91.7724 71.2764C91.7241 71.2977 91.655 71.32 91.5652 71.3433C91.4754 71.3685 91.3624 71.3854 91.2263 71.3939C91.0033 71.4085 90.7932 71.3789 90.5963 71.305C90.3993 71.2311 90.2369 71.1101 90.1093 70.9418C89.9817 70.7736 89.9115 70.558 89.8987 70.295L89.6901 65.9961Z" fill="black"/>
<path d="M85.6072 69.0157L85.7328 71.6036L84.8844 71.6447L84.6729 67.2862L85.4872 67.2467L85.5217 67.9561L85.5756 67.9535C85.6646 67.7178 85.8127 67.5248 86.0196 67.3745C86.2285 67.224 86.4966 67.1408 86.8238 67.125C87.1208 67.1105 87.384 67.1603 87.6132 67.2744C87.8424 67.3865 88.0244 67.5616 88.1592 67.7996C88.294 68.0377 88.3702 68.3365 88.3876 68.6959L88.5222 71.4682L87.6737 71.5094L87.5441 68.8392C87.5288 68.5233 87.4345 68.2804 87.2613 68.1106C87.088 67.9389 86.8576 67.86 86.5701 67.8739C86.3733 67.8835 86.2004 67.9345 86.0513 68.0271C85.9041 68.1196 85.79 68.2503 85.7091 68.4192C85.63 68.5861 85.596 68.7849 85.6072 69.0157Z" fill="black"/>
<path d="M82.0774 71.8692C81.648 71.8901 81.2737 71.8163 80.9545 71.6478C80.6372 71.4774 80.3862 71.2289 80.2016 70.9022C80.0188 70.5736 79.9164 70.1832 79.8945 69.7311C79.8728 69.2846 79.9369 68.8871 80.0869 68.5385C80.2387 68.1898 80.4604 67.9127 80.7519 67.707C81.0453 67.5012 81.3944 67.3885 81.7992 67.3689C82.0451 67.357 82.2855 67.3861 82.5202 67.4562C82.7549 67.5263 82.9683 67.644 83.1602 67.8091C83.3522 67.9742 83.5079 68.1933 83.6273 68.4662C83.7466 68.7373 83.8159 69.0705 83.8351 69.4658L83.8497 69.7666L80.385 69.9348L80.3542 69.2992L82.9874 69.1714C82.9766 68.9481 82.9216 68.7527 82.8224 68.5849C82.7232 68.4153 82.5888 68.2843 82.4194 68.1921C82.2518 68.0997 82.0584 68.0588 81.8389 68.0695C81.6006 68.0811 81.3953 68.1498 81.2232 68.2757C81.0529 68.3997 80.924 68.5576 80.8366 68.7496C80.751 68.9395 80.7135 69.1433 80.7241 69.3609L80.7482 69.8574C80.7623 70.1488 80.8254 70.3941 80.9375 70.5934C81.0514 70.7927 81.2037 70.9417 81.3944 71.0406C81.5849 71.1375 81.8041 71.18 82.0519 71.1679C82.2127 71.1601 82.3582 71.1303 82.4884 71.0785C82.6185 71.0248 82.7296 70.9492 82.8215 70.8518C82.9135 70.7545 82.9817 70.6364 83.0262 70.4977L83.8363 70.6035C83.7834 70.8431 83.6781 71.0558 83.5202 71.2417C83.3642 71.4256 83.1637 71.5728 82.9188 71.6833C82.6757 71.7918 82.3952 71.8538 82.0774 71.8692Z" fill="black"/>
<path d="M75.0594 73.8509C74.7132 73.8677 74.4131 73.8368 74.1589 73.7581C73.9067 73.6793 73.6985 73.569 73.5342 73.4272C73.3699 73.2854 73.2447 73.1274 73.1585 72.9534L73.8732 72.6172C73.9283 72.698 74.0007 72.7826 74.0903 72.8712C74.1819 72.9615 74.3031 73.0363 74.4539 73.0953C74.6065 73.1543 74.8001 73.178 75.0347 73.1667C75.3563 73.151 75.6183 73.0596 75.8206 72.8924C76.0231 72.7271 76.116 72.4742 76.0995 72.1337L76.0579 71.2768L76.004 71.2794C75.9574 71.3746 75.8887 71.4812 75.7977 71.5994C75.7086 71.7175 75.5829 71.8222 75.4204 71.9135C75.258 72.0048 75.0434 72.057 74.7767 72.0699C74.4324 72.0866 74.1183 72.0213 73.8343 71.8739C73.5521 71.7245 73.3229 71.4958 73.1468 71.1877C72.9724 70.8776 72.874 70.4908 72.8515 70.0273C72.829 69.5639 72.8883 69.1628 73.0292 68.8241C73.172 68.4854 73.3773 68.2213 73.6449 68.032C73.9125 67.8407 74.2213 67.7366 74.5712 67.7197C74.8417 67.7065 75.0624 67.7413 75.2333 67.824C75.4041 67.9049 75.5387 68.0026 75.6372 68.1173C75.7376 68.2319 75.8155 68.3333 75.871 68.4217L75.9334 68.4186L75.8991 67.7121L76.7305 67.6717L76.9468 72.1267C76.9649 72.5013 76.8928 72.8129 76.7305 73.0616C76.5681 73.3103 76.3412 73.4995 76.0498 73.6294C75.7603 73.7591 75.4302 73.8329 75.0594 73.8509ZM74.9298 71.3571C75.1738 71.3453 75.3773 71.2785 75.5401 71.1568C75.7048 71.0332 75.8254 70.8624 75.9021 70.6444C75.9805 70.4244 76.0124 70.164 75.9978 69.8632C75.9836 69.57 75.9276 69.3139 75.8297 69.0949C75.7319 68.8759 75.5957 68.7081 75.4213 68.5914C75.2468 68.4728 75.0356 68.4196 74.7878 68.4316C74.5324 68.444 74.3228 68.5205 74.159 68.6612C73.9951 68.8 73.8751 68.9841 73.799 69.2134C73.7248 69.4426 73.6944 69.6963 73.7079 69.9744C73.7218 70.26 73.7775 70.5086 73.875 70.72C73.9724 70.9314 74.1093 71.0936 74.2854 71.2064C74.4634 71.3191 74.6782 71.3693 74.9298 71.3571Z" fill="black"/>
<path d="M70.1738 72.447C69.7652 72.4668 69.404 72.3905 69.0904 72.218C68.7767 72.0455 68.5276 71.7949 68.3429 71.4664C68.1581 71.1378 68.0549 70.7485 68.033 70.2982C68.0111 69.8461 68.0761 69.4467 68.228 69.0999C68.3799 68.7531 68.6036 68.4787 68.8991 68.2766C69.1946 68.0745 69.5466 67.9636 69.9552 67.9437C70.3638 67.9239 70.725 68.0002 71.0386 68.1727C71.3523 68.3452 71.6015 68.5967 71.7863 68.9272C71.9711 69.2576 72.0745 69.6489 72.0964 70.101C72.1183 70.5512 72.0532 70.9488 71.9012 71.2937C71.7491 71.6386 71.5254 71.9121 71.2299 72.1141C70.9344 72.3162 70.5824 72.4271 70.1738 72.447ZM70.1421 71.7346C70.4069 71.7217 70.6229 71.6411 70.7902 71.4927C70.9574 71.3442 71.077 71.1517 71.149 70.9149C71.2228 70.6781 71.2529 70.4197 71.2393 70.1398C71.2258 69.8617 71.1709 69.6084 71.0745 69.3798C70.9798 69.1493 70.8421 68.9673 70.6611 68.8339C70.4802 68.7004 70.2573 68.6401 69.9925 68.653C69.7258 68.6659 69.5079 68.7476 69.3388 68.898C69.1717 69.0484 69.0512 69.2429 68.9775 69.4816C68.9055 69.7183 68.8763 69.9757 68.8898 70.2538C68.9034 70.5338 68.9575 70.7881 69.052 71.0167C69.1484 71.2453 69.287 71.4253 69.4679 71.5568C69.6506 71.6883 69.8753 71.7475 70.1421 71.7346Z" fill="black"/>
<path d="M63.8914 72.6638L63.6093 66.8524L64.4861 66.8099L64.7315 71.8664L67.3648 71.7386L67.4014 72.4934L63.8914 72.6638Z" fill="black"/>
<rect x="115.246" y="26" width="95.6236" height="20.1478" rx="10.0739" transform="rotate(30.5677 115.246 26)" fill="white"/>
<path d="M169.231 70.0343L167.914 72.2651L167.182 71.8331L169.401 68.0759L170.103 68.4905L169.742 69.1021L169.789 69.1295C169.993 68.9816 170.222 68.9018 170.478 68.8899C170.735 68.879 171.005 68.9569 171.287 69.1236C171.543 69.2748 171.735 69.461 171.864 69.6823C171.994 69.902 172.05 70.1483 172.032 70.4212C172.013 70.6942 171.913 70.9856 171.73 71.2955L170.318 73.6853L169.587 73.2533L170.946 70.9515C171.107 70.6792 171.162 70.4245 171.111 70.1874C171.06 69.9487 170.911 69.7561 170.663 69.6097C170.494 69.5096 170.321 69.4572 170.146 69.4525C169.972 69.4488 169.805 69.4953 169.644 69.5919C169.486 69.6879 169.349 69.8353 169.231 70.0343Z" fill="black"/>
<path d="M164.57 70.3922C164.217 70.1842 163.958 69.9219 163.791 69.6054C163.623 69.2889 163.553 68.9426 163.579 68.5666C163.605 68.1907 163.733 67.8086 163.962 67.4205C164.193 67.0307 164.467 66.7328 164.784 66.5266C165.102 66.3204 165.439 66.2141 165.797 66.2078C166.155 66.2014 166.51 66.3022 166.862 66.5103C167.215 66.7183 167.474 66.9806 167.642 67.2971C167.809 67.6136 167.879 67.9607 167.852 68.3383C167.824 68.716 167.696 69.0996 167.465 69.4894C167.236 69.8775 166.963 70.1738 166.647 70.3784C166.33 70.5829 165.993 70.6884 165.635 70.6948C165.277 70.7011 164.922 70.6003 164.57 70.3922ZM164.935 69.7797C165.163 69.9146 165.388 69.966 165.609 69.9339C165.83 69.9018 166.036 69.8067 166.226 69.6485C166.418 69.4913 166.585 69.292 166.728 69.0506C166.87 68.8109 166.963 68.5691 167.008 68.3252C167.056 68.0806 167.041 67.8528 166.963 67.6419C166.885 67.431 166.732 67.2581 166.504 67.1233C166.274 66.9874 166.047 66.9359 165.823 66.9686C165.601 67.0023 165.393 67.0986 165.2 67.2575C165.01 67.4157 164.844 67.6146 164.703 67.8544C164.56 68.0957 164.465 68.3379 164.419 68.5808C164.374 68.8247 164.391 69.0513 164.469 69.2606C164.55 69.4709 164.705 69.6439 164.935 69.7797Z" fill="black"/>
<path d="M164.482 65.1704L164.136 65.7575L162.083 64.5453L162.43 63.9583L164.482 65.1704ZM163.512 63.3832L164.243 63.8152L162.144 67.3694C162.06 67.5112 162.019 67.6306 162.019 67.7274C162.02 67.8225 162.046 67.9029 162.097 67.9685C162.151 68.0334 162.218 68.0894 162.298 68.1366C162.357 68.1713 162.411 68.1976 162.459 68.2154C162.508 68.2333 162.546 68.247 162.574 68.2565L162.349 68.9387C162.297 68.93 162.227 68.9107 162.139 68.8808C162.05 68.8525 161.947 68.8045 161.828 68.7367C161.634 68.6263 161.475 68.4861 161.351 68.3162C161.227 68.1462 161.158 67.9558 161.144 67.7451C161.129 67.5344 161.189 67.3157 161.323 67.089L163.512 63.3832Z" fill="black"/>
<path d="M161.919 63.6566L161.573 64.2437L159.52 63.0315L159.867 62.4445L161.919 63.6566ZM160.949 61.8694L161.681 62.3014L159.581 65.8556C159.498 65.9974 159.456 66.1168 159.456 66.2136C159.457 66.3087 159.483 66.3891 159.534 66.4547C159.588 66.5196 159.655 66.5756 159.735 66.6228C159.794 66.6575 159.848 66.6838 159.897 66.7016C159.945 66.7195 159.984 66.7332 160.011 66.7427L159.786 67.425C159.734 67.4162 159.664 67.3969 159.576 67.367C159.487 67.3387 159.384 67.2907 159.265 67.2229C159.071 67.1125 158.912 66.9724 158.788 66.8024C158.664 66.6324 158.595 66.442 158.581 66.2313C158.567 66.0206 158.626 65.8019 158.76 65.5752L160.949 61.8694Z" fill="black"/>
<path d="M157.15 63.806L158.449 61.6069L159.183 62.0404L156.964 65.7976L156.245 65.3728L156.629 64.7221L156.59 64.699C156.385 64.8486 156.147 64.9338 155.878 64.9549C155.611 64.9752 155.336 64.9021 155.054 64.7355C154.812 64.5929 154.63 64.4137 154.507 64.1979C154.386 63.9815 154.335 63.7368 154.353 63.4638C154.373 63.1918 154.474 62.9009 154.657 62.591L156.069 60.2012L156.8 60.6332L155.441 62.9349C155.29 63.191 155.24 63.4367 155.292 63.6722C155.345 63.9076 155.484 64.0923 155.711 64.2262C155.848 64.3071 156.004 64.3533 156.18 64.3647C156.358 64.3771 156.532 64.3405 156.704 64.2549C156.877 64.1702 157.026 64.0206 157.15 63.806Z" fill="black"/>
<path d="M149.597 61.4463L152.556 56.4366L153.287 56.8686L152.187 58.7301L152.231 58.7561C152.32 58.7029 152.435 58.6485 152.575 58.593C152.716 58.5374 152.88 58.5132 153.067 58.5204C153.255 58.5259 153.466 58.5975 153.699 58.7353C154.002 58.9144 154.228 59.1509 154.375 59.4449C154.523 59.7388 154.579 60.07 154.544 60.4386C154.51 60.8081 154.374 61.1959 154.134 61.602C153.894 62.0081 153.621 62.3162 153.314 62.5266C153.008 62.7353 152.691 62.8481 152.362 62.865C152.034 62.8802 151.718 62.7983 151.415 62.6191C151.187 62.4843 151.022 62.3357 150.923 62.1733C150.824 62.0119 150.765 61.8557 150.744 61.7048C150.723 61.554 150.714 61.4255 150.717 61.3196L150.656 61.2835L150.311 61.8681L149.597 61.4463ZM151.423 59.991C151.267 60.2552 151.168 60.5094 151.128 60.7536C151.087 60.9978 151.106 61.219 151.184 61.4173C151.264 61.6139 151.409 61.7743 151.619 61.8986C151.838 62.0276 152.055 62.0776 152.27 62.0485C152.486 62.0178 152.691 61.9243 152.884 61.768C153.079 61.6127 153.251 61.4095 153.399 61.1583C153.546 60.9105 153.64 60.6657 153.681 60.4241C153.724 60.1834 153.706 59.9622 153.625 59.7604C153.545 59.5596 153.395 59.3941 153.175 59.2641C152.963 59.1389 152.752 59.0876 152.54 59.1101C152.331 59.1337 152.131 59.2211 151.94 59.3725C151.749 59.5239 151.577 59.7301 151.423 59.991Z" fill="black"/>
<path d="M145.102 58.8941C144.75 58.686 144.49 58.4238 144.323 58.1072C144.156 57.7907 144.086 57.4445 144.112 57.0685C144.138 56.6925 144.266 56.3104 144.495 55.9223C144.725 55.5326 144.999 55.2346 145.317 55.0284C145.634 54.8222 145.972 54.716 146.33 54.7096C146.688 54.7032 147.043 54.8041 147.395 55.0121C147.747 55.2202 148.007 55.4824 148.174 55.799C148.342 56.1155 148.412 56.4625 148.384 56.8402C148.357 57.2178 148.228 57.6015 147.998 57.9912C147.769 58.3793 147.496 58.6757 147.179 58.8802C146.863 59.0848 146.525 59.1902 146.168 59.1966C145.81 59.203 145.455 59.1021 145.102 58.8941ZM145.467 58.2816C145.696 58.4164 145.921 58.4678 146.142 58.4357C146.363 58.4037 146.569 58.3085 146.759 58.1503C146.951 57.9931 147.118 57.7938 147.261 57.5525C147.402 57.3127 147.496 57.0709 147.541 56.827C147.588 56.5824 147.573 56.3546 147.496 56.1437C147.418 55.9328 147.265 55.7599 147.036 55.6251C146.807 55.4893 146.58 55.4377 146.356 55.4705C146.133 55.5042 145.926 55.6004 145.733 55.7593C145.543 55.9175 145.377 56.1165 145.235 56.3562C145.093 56.5975 144.998 56.8397 144.951 57.0826C144.906 57.3266 144.923 57.5532 145.002 57.7625C145.082 57.9727 145.238 58.1457 145.467 58.2816Z" fill="black"/>
<path d="M141.849 56.8703L144.068 53.1131L144.8 53.5451L142.581 57.3023L141.849 56.8703ZM144.78 52.7515C144.653 52.6764 144.569 52.5695 144.528 52.4307C144.489 52.2913 144.505 52.1621 144.575 52.0431C144.646 51.9224 144.752 51.8462 144.892 51.8143C145.034 51.7818 145.169 51.8032 145.296 51.8783C145.423 51.9534 145.506 52.0607 145.545 52.2001C145.586 52.3388 145.571 52.4685 145.5 52.5892C145.429 52.7082 145.323 52.784 145.181 52.8165C145.041 52.8483 144.907 52.8267 144.78 52.7515Z" fill="black"/>
<path d="M138.9 55.2277C138.597 55.0486 138.372 54.8112 138.226 54.5157C138.082 54.2195 138.027 53.8871 138.062 53.5185C138.1 53.1492 138.239 52.7616 138.479 52.3555C138.718 51.9495 138.991 51.6421 139.297 51.4334C139.605 51.2257 139.923 51.1155 140.251 51.1028C140.58 51.0901 140.895 51.1729 141.197 51.3511C141.43 51.4888 141.594 51.6387 141.69 51.8008C141.788 51.9622 141.846 52.1174 141.864 52.2663C141.883 52.4163 141.891 52.5434 141.889 52.6477L141.933 52.6737L143.033 50.8122L143.764 51.2442L140.805 56.2538L140.091 55.8319L140.436 55.2473L140.375 55.2112C140.284 55.2651 140.166 55.3188 140.023 55.3725C139.88 55.427 139.715 55.4503 139.526 55.4421C139.337 55.434 139.129 55.3625 138.9 55.2277ZM139.43 54.6993C139.641 54.8236 139.851 54.8731 140.062 54.8479C140.275 54.8221 140.478 54.7319 140.67 54.5772C140.865 54.4235 141.04 54.2146 141.196 53.9504C141.35 53.6895 141.447 53.439 141.488 53.1991C141.528 52.9591 141.508 52.7416 141.428 52.5466C141.347 52.3516 141.2 52.191 140.986 52.0648C140.766 51.9348 140.549 51.8835 140.335 51.911C140.121 51.9385 139.918 52.0287 139.726 52.1817C139.536 52.3357 139.368 52.5366 139.222 52.7845C139.073 53.0356 138.977 53.2836 138.934 53.5285C138.891 53.7734 138.908 53.9979 138.985 54.202C139.065 54.4054 139.213 54.5712 139.43 54.6993Z" fill="black"/>
<path d="M134.66 52.7363C134.422 52.5957 134.233 52.4245 134.092 52.2228C133.953 52.0195 133.877 51.7998 133.864 51.5637C133.854 51.3286 133.921 51.0879 134.066 50.8417C134.192 50.6297 134.336 50.4793 134.498 50.3905C134.66 50.3016 134.835 50.2582 135.02 50.2602C135.206 50.2621 135.397 50.2933 135.592 50.3537C135.787 50.414 135.98 50.4861 136.17 50.5699C136.411 50.6767 136.606 50.7634 136.756 50.8299C136.907 50.8948 137.025 50.9265 137.112 50.9249C137.199 50.9233 137.268 50.8785 137.32 50.7905L137.33 50.7733C137.457 50.5597 137.494 50.3586 137.443 50.1699C137.393 49.9821 137.25 49.8184 137.013 49.6788C136.767 49.5333 136.541 49.4734 136.334 49.4988C136.131 49.5236 135.963 49.5862 135.831 49.6865L135.236 49.1239C135.453 48.9438 135.68 48.8298 135.92 48.7821C136.162 48.7336 136.404 48.7383 136.647 48.796C136.891 48.8522 137.127 48.9472 137.353 49.0811C137.503 49.1697 137.652 49.2815 137.799 49.4166C137.948 49.551 138.068 49.708 138.16 49.8877C138.254 50.0683 138.297 50.2729 138.289 50.5017C138.283 50.7288 138.199 50.9793 138.037 51.2532L136.563 53.7483L135.849 53.3264L136.152 52.8127L136.123 52.7954C136.02 52.862 135.894 52.9131 135.745 52.9485C135.597 52.984 135.431 52.9881 135.247 52.9608C135.063 52.9334 134.867 52.8586 134.66 52.7363ZM135.166 52.2431C135.368 52.3626 135.564 52.4247 135.755 52.4296C135.947 52.4354 136.119 52.396 136.27 52.3115C136.424 52.2263 136.544 52.1095 136.632 51.9611L136.918 51.4768C136.877 51.4875 136.812 51.4821 136.723 51.4606C136.637 51.4385 136.542 51.4076 136.438 51.3681C136.335 51.3269 136.234 51.2863 136.137 51.2464C136.041 51.2048 135.96 51.1703 135.895 51.1428C135.742 51.077 135.595 51.0306 135.452 51.0036C135.311 50.9776 135.182 50.9839 135.065 51.0224C134.95 51.0602 134.854 51.1443 134.777 51.2748C134.67 51.4558 134.656 51.6323 134.735 51.8042C134.815 51.9745 134.958 52.1208 135.166 52.2431Z" fill="black"/>
<path d="M129.235 49.4198L132.193 44.4102L133.979 45.4648C134.367 45.6941 134.65 45.9512 134.827 46.2361C135.006 46.522 135.089 46.8207 135.076 47.1323C135.065 47.4423 134.968 47.7514 134.786 48.0596C134.605 48.3661 134.381 48.598 134.114 48.7551C133.85 48.9115 133.552 48.9781 133.218 48.9547C132.886 48.9323 132.526 48.8065 132.138 48.5773L130.785 47.7783L131.169 47.1277L132.453 47.8862C132.698 48.0306 132.918 48.1131 133.112 48.1335C133.309 48.1549 133.482 48.1199 133.633 48.0286C133.784 47.9372 133.914 47.7978 134.025 47.6102C134.137 47.4211 134.197 47.2355 134.205 47.0536C134.216 46.8726 134.165 46.6996 134.053 46.5348C133.944 46.3692 133.765 46.2127 133.516 46.0654L132.566 45.5048L129.99 49.8662L129.235 49.4198ZM133.043 48.6202L132.945 51.6115L132.084 51.1029L132.206 48.1261L133.043 48.6202Z" fill="black"/>
<defs>
<filter id="filter0_d_12_154" x="11" y="126" width="64.2926" height="27.9064" filterUnits="userSpaceOnUse" color-interpolation-filters="sRGB">
<feFlood flood-opacity="0" result="BackgroundImageFix"/>
<feColorMatrix in="SourceAlpha" type="matrix" values="0 0 0 0 0 0 0 0 0 0 0 0 0 0 0 0 0 0 127 0" result="hardAlpha"/>
<feOffset dy="4"/>
<feGaussianBlur stdDeviation="2"/>
<feComposite in2="hardAlpha" operator="out"/>
<feColorMatrix type="matrix" values="0 0 0 0 0.705882 0 0 0 0 0.682353 0 0 0 0 0.890196 0 0 0 0.2 0"/>
<feBlend mode="normal" in2="BackgroundImageFix" result="effect1_dropShadow_12_154"/>
<feBlend mode="normal" in="SourceGraphic" in2="effect1_dropShadow_12_154" result="shape"/>
</filter>
<filter id="filter1_d_12_154" x="157" y="126" width="90.1385" height="27.9149" filterUnits="userSpaceOnUse" color-interpolation-filters="sRGB">
<feFlood flood-opacity="0" result="BackgroundImageFix"/>
<feColorMatrix in="SourceAlpha" type="matrix" values="0 0 0 0 0 0 0 0 0 0 0 0 0 0 0 0 0 0 127 0" result="hardAlpha"/>
<feOffset dy="4"/>
<feGaussianBlur stdDeviation="2"/>
<feComposite in2="hardAlpha" operator="out"/>
<feColorMatrix type="matrix" values="0 0 0 0 0.705882 0 0 0 0 0.682353 0 0 0 0 0.890196 0 0 0 0.2 0"/>
<feBlend mode="normal" in2="BackgroundImageFix" result="effect1_dropShadow_12_154"/>
<feBlend mode="normal" in="SourceGraphic" in2="effect1_dropShadow_12_154" result="shape"/>
</filter>
<linearGradient id="paint0_linear_12_154" x1="128.5" y1="0" x2="128.5" y2="176" gradientUnits="userSpaceOnUse">
<stop stop-color="#B2ACE3"/>
<stop offset="1" stop-color="white"/>
</linearGradient>
</defs>
</svg>
